<svg width="148" height="120" viewBox="0 0 148 120" fill="none" xmlns="http://www.w3.org/2000/svg">
<g style="mix-blend-mode:multiply">
<rect x="43" y="52" width="105" height="28" rx="14" fill="#344054"/>
<path d="M56.1294 71V60.8182H59.858C60.5806 60.8182 61.1788 60.9375 61.6528 61.1761C62.1267 61.4115 62.4814 61.7313 62.7167 62.1357C62.952 62.5367 63.0697 62.9891 63.0697 63.4929C63.0697 63.9171 62.9918 64.2751 62.836 64.5668C62.6803 64.8551 62.4714 65.0871 62.2096 65.2628C61.9511 65.4351 61.666 65.5611 61.3545 65.6406V65.7401C61.6926 65.7566 62.0223 65.866 62.3438 66.0682C62.6686 66.267 62.9371 66.5504 63.1492 66.9183C63.3614 67.2862 63.4674 67.7337 63.4674 68.2607C63.4674 68.781 63.3448 69.2483 63.0995 69.6626C62.8576 70.0736 62.483 70.4001 61.9759 70.642C61.4688 70.8807 60.8209 71 60.032 71H56.1294ZM57.6656 69.6825H59.8829C60.6187 69.6825 61.1457 69.54 61.4639 69.255C61.782 68.9699 61.9411 68.6136 61.9411 68.1861C61.9411 67.8646 61.8599 67.5696 61.6975 67.3011C61.5351 67.0327 61.3031 66.8189 61.0015 66.6598C60.7032 66.5007 60.3486 66.4212 59.9376 66.4212H57.6656V69.6825ZM57.6656 65.223H59.7238C60.0685 65.223 60.3784 65.1567 60.6535 65.0241C60.9319 64.8916 61.1523 64.706 61.3147 64.4673C61.4804 64.2254 61.5633 63.9403 61.5633 63.6122C61.5633 63.1913 61.4158 62.8383 61.1208 62.5533C60.8258 62.2682 60.3734 62.1257 59.7636 62.1257H57.6656V65.223ZM68.4614 71.1541C67.709 71.1541 67.0611 70.9934 66.5175 70.6719C65.9772 70.3471 65.5596 69.8913 65.2646 69.3047C64.973 68.7147 64.8271 68.0237 64.8271 67.2315C64.8271 66.4493 64.973 65.7599 65.2646 65.1634C65.5596 64.5668 65.9706 64.1011 66.4976 63.7663C67.0279 63.4316 67.6477 63.2642 68.357 63.2642C68.7878 63.2642 69.2055 63.3355 69.6098 63.478C70.0142 63.6205 70.3771 63.8442 70.6986 64.1491C71.0201 64.4541 71.2736 64.8501 71.4593 65.3374C71.6449 65.8213 71.7377 66.4096 71.7377 67.1023V67.6293H65.6673V66.5156H70.281C70.281 66.1245 70.2014 65.7782 70.0423 65.4766C69.8833 65.1716 69.6595 64.9313 69.3712 64.7557C69.0861 64.58 68.7514 64.4922 68.3669 64.4922C67.9493 64.4922 67.5847 64.5949 67.2732 64.8004C66.9649 65.0026 66.7263 65.2678 66.5573 65.5959C66.3915 65.9207 66.3087 66.2737 66.3087 66.6548V67.5249C66.3087 68.0353 66.3982 68.4695 66.5771 68.8274C66.7594 69.1854 67.013 69.4588 67.3378 69.6477C67.6626 69.8333 68.0421 69.9261 68.4763 69.9261C68.758 69.9261 69.0149 69.8864 69.2469 69.8068C69.4789 69.724 69.6794 69.6013 69.8485 69.4389C70.0175 69.2765 70.1468 69.076 70.2362 68.8374L71.6432 69.0909C71.5305 69.5052 71.3283 69.8681 71.0367 70.1797C70.7483 70.4879 70.3854 70.7282 69.9479 70.9006C69.5137 71.0696 69.0182 71.1541 68.4614 71.1541ZM77.0212 63.3636V64.5568H72.7059V63.3636H77.0212ZM73.8891 71V62.4787C73.8891 62.0014 73.9935 61.6053 74.2023 61.2905C74.4111 60.9723 74.6879 60.7353 75.0326 60.5795C75.3773 60.4205 75.7518 60.3409 76.1562 60.3409C76.4545 60.3409 76.7097 60.3658 76.9218 60.4155C77.1339 60.4619 77.2913 60.505 77.3941 60.5447L77.0461 61.7479C76.9765 61.728 76.887 61.7048 76.7776 61.6783C76.6682 61.6484 76.5357 61.6335 76.3799 61.6335C76.0186 61.6335 75.7601 61.723 75.6043 61.902C75.4519 62.081 75.3756 62.3395 75.3756 62.6776V71H73.8891ZM81.4708 71.1541C80.7549 71.1541 80.1301 70.9901 79.5965 70.6619C79.0629 70.3338 78.6486 69.8748 78.3536 69.2848C78.0586 68.6948 77.9111 68.0054 77.9111 67.2166C77.9111 66.4245 78.0586 65.7318 78.3536 65.1385C78.6486 64.5452 79.0629 64.0845 79.5965 63.7564C80.1301 63.4283 80.7549 63.2642 81.4708 63.2642C82.1867 63.2642 82.8115 63.4283 83.3451 63.7564C83.8787 64.0845 84.293 64.5452 84.588 65.1385C84.883 65.7318 85.0305 66.4245 85.0305 67.2166C85.0305 68.0054 84.883 68.6948 84.588 69.2848C84.293 69.8748 83.8787 70.3338 83.3451 70.6619C82.8115 70.9901 82.1867 71.1541 81.4708 71.1541ZM81.4758 69.9062C81.9398 69.9062 82.3242 69.7836 82.6292 69.5384C82.9341 69.2931 83.1595 68.9666 83.3053 68.5589C83.4545 68.1513 83.529 67.7022 83.529 67.2116C83.529 66.7244 83.4545 66.277 83.3053 65.8693C83.1595 65.4583 82.9341 65.1286 82.6292 64.88C82.3242 64.6314 81.9398 64.5071 81.4758 64.5071C81.0084 64.5071 80.6207 64.6314 80.3124 64.88C80.0075 65.1286 79.7805 65.4583 79.6313 65.8693C79.4855 66.277 79.4126 66.7244 79.4126 67.2116C79.4126 67.7022 79.4855 68.1513 79.6313 68.5589C79.7805 68.9666 80.0075 69.2931 80.3124 69.5384C80.6207 69.7836 81.0084 69.9062 81.4758 69.9062ZM86.6897 71V63.3636H88.1265V64.5767H88.2061C88.3453 64.1657 88.5905 63.8426 88.9419 63.6072C89.2965 63.3686 89.6975 63.2493 90.145 63.2493C90.2378 63.2493 90.3472 63.2526 90.4731 63.2592C90.6024 63.2659 90.7035 63.2741 90.7764 63.2841V64.706C90.7167 64.6894 90.6106 64.6712 90.4582 64.6513C90.3057 64.6281 90.1533 64.6165 90.0008 64.6165C89.6495 64.6165 89.3363 64.6911 89.0612 64.8402C88.7894 64.986 88.574 65.1899 88.4149 65.4517C88.2558 65.7102 88.1762 66.0052 88.1762 66.3366V71H86.6897ZM95.0805 71.1541C94.3282 71.1541 93.6802 70.9934 93.1366 70.6719C92.5964 70.3471 92.1788 69.8913 91.8838 69.3047C91.5921 68.7147 91.4463 68.0237 91.4463 67.2315C91.4463 66.4493 91.5921 65.7599 91.8838 65.1634C92.1788 64.5668 92.5898 64.1011 93.1167 63.7663C93.647 63.4316 94.2668 63.2642 94.9761 63.2642C95.407 63.2642 95.8246 63.3355 96.229 63.478C96.6333 63.6205 96.9962 63.8442 97.3177 64.1491C97.6392 64.4541 97.8928 64.8501 98.0784 65.3374C98.264 65.8213 98.3568 66.4096 98.3568 67.1023V67.6293H92.2865V66.5156H96.9001C96.9001 66.1245 96.8206 65.7782 96.6615 65.4766C96.5024 65.1716 96.2787 64.9313 95.9903 64.7557C95.7053 64.58 95.3705 64.4922 94.9861 64.4922C94.5684 64.4922 94.2039 64.5949 93.8923 64.8004C93.5841 65.0026 93.3454 65.2678 93.1764 65.5959C93.0107 65.9207 92.9278 66.2737 92.9278 66.6548V67.5249C92.9278 68.0353 93.0173 68.4695 93.1963 68.8274C93.3786 69.1854 93.6321 69.4588 93.9569 69.6477C94.2818 69.8333 94.6613 69.9261 95.0954 69.9261C95.3772 69.9261 95.634 69.8864 95.866 69.8068C96.098 69.724 96.2986 69.6013 96.4676 69.4389C96.6366 69.2765 96.7659 69.076 96.8554 68.8374L98.2623 69.0909C98.1497 69.5052 97.9475 69.8681 97.6558 70.1797C97.3675 70.4879 97.0045 70.7282 96.567 70.9006C96.1328 71.0696 95.6373 71.1541 95.0805 71.1541ZM103.831 71V60.8182H110.144V62.1406H105.367V65.2429H109.692V66.5604H105.367V71H103.831ZM114.57 71.1541C113.854 71.1541 113.23 70.9901 112.696 70.6619C112.162 70.3338 111.748 69.8748 111.453 69.2848C111.158 68.6948 111.011 68.0054 111.011 67.2166C111.011 66.4245 111.158 65.7318 111.453 65.1385C111.748 64.5452 112.162 64.0845 112.696 63.7564C113.23 63.4283 113.854 63.2642 114.57 63.2642C115.286 63.2642 115.911 63.4283 116.445 63.7564C116.978 64.0845 117.393 64.5452 117.688 65.1385C117.983 65.7318 118.13 66.4245 118.13 67.2166C118.13 68.0054 117.983 68.6948 117.688 69.2848C117.393 69.8748 116.978 70.3338 116.445 70.6619C115.911 70.9901 115.286 71.1541 114.57 71.1541ZM114.575 69.9062C115.039 69.9062 115.424 69.7836 115.729 69.5384C116.034 69.2931 116.259 68.9666 116.405 68.5589C116.554 68.1513 116.629 67.7022 116.629 67.2116C116.629 66.7244 116.554 66.277 116.405 65.8693C116.259 65.4583 116.034 65.1286 115.729 64.88C115.424 64.6314 115.039 64.5071 114.575 64.5071C114.108 64.5071 113.72 64.6314 113.412 64.88C113.107 65.1286 112.88 65.4583 112.731 65.8693C112.585 66.277 112.512 66.7244 112.512 67.2116C112.512 67.7022 112.585 68.1513 112.731 68.5589C112.88 68.9666 113.107 69.2931 113.412 69.5384C113.72 69.7836 114.108 69.9062 114.575 69.9062ZM123.006 71.1541C122.29 71.1541 121.665 70.9901 121.132 70.6619C120.598 70.3338 120.184 69.8748 119.889 69.2848C119.594 68.6948 119.446 68.0054 119.446 67.2166C119.446 66.4245 119.594 65.7318 119.889 65.1385C120.184 64.5452 120.598 64.0845 121.132 63.7564C121.665 63.4283 122.29 63.2642 123.006 63.2642C123.722 63.2642 124.347 63.4283 124.88 63.7564C125.414 64.0845 125.828 64.5452 126.123 65.1385C126.418 65.7318 126.566 66.4245 126.566 67.2166C126.566 68.0054 126.418 68.6948 126.123 69.2848C125.828 69.8748 125.414 70.3338 124.88 70.6619C124.347 70.9901 123.722 71.1541 123.006 71.1541ZM123.011 69.9062C123.475 69.9062 123.859 69.7836 124.164 69.5384C124.469 69.2931 124.695 68.9666 124.84 68.5589C124.99 68.1513 125.064 67.7022 125.064 67.2116C125.064 66.7244 124.99 66.277 124.84 65.8693C124.695 65.4583 124.469 65.1286 124.164 64.88C123.859 64.6314 123.475 64.5071 123.011 64.5071C122.544 64.5071 122.156 64.6314 121.848 64.88C121.543 65.1286 121.316 65.4583 121.166 65.8693C121.021 66.277 120.948 66.7244 120.948 67.2116C120.948 67.7022 121.021 68.1513 121.166 68.5589C121.316 68.9666 121.543 69.2931 121.848 69.5384C122.156 69.7836 122.544 69.9062 123.011 69.9062ZM131.084 71.1491C130.467 71.1491 129.917 70.9917 129.433 70.6768C128.952 70.3587 128.575 69.9062 128.299 69.3196C128.028 68.7296 127.892 68.022 127.892 67.1967C127.892 66.3714 128.029 65.6655 128.304 65.0788C128.583 64.4922 128.964 64.0431 129.448 63.7315C129.932 63.42 130.48 63.2642 131.093 63.2642C131.567 63.2642 131.949 63.3438 132.237 63.5028C132.529 63.6586 132.754 63.8409 132.913 64.0497C133.075 64.2585 133.201 64.4425 133.291 64.6016H133.38V60.8182H134.867V71H133.415V69.8118H133.291C133.201 69.9742 133.072 70.1598 132.903 70.3686C132.737 70.5774 132.509 70.7597 132.217 70.9155C131.925 71.0713 131.548 71.1491 131.084 71.1491ZM131.412 69.8814C131.839 69.8814 132.2 69.7687 132.495 69.5433C132.794 69.3146 133.019 68.9981 133.172 68.5938C133.327 68.1894 133.405 67.7187 133.405 67.1818C133.405 66.6515 133.329 66.1875 133.177 65.7898C133.024 65.392 132.8 65.0821 132.505 64.8601C132.21 64.638 131.846 64.527 131.412 64.527C130.964 64.527 130.591 64.643 130.293 64.875C129.995 65.107 129.769 65.4235 129.617 65.8246C129.468 66.2256 129.393 66.678 129.393 67.1818C129.393 67.6922 129.469 68.1513 129.622 68.5589C129.774 68.9666 130 69.2898 130.298 69.5284C130.6 69.7637 130.971 69.8814 131.412 69.8814Z" fill="white"/>
</g>
<g clip-path="url(#clip0_2_101272)">
<rect y="94" width="16" height="16" rx="8" fill="#F9F5FF"/>
<rect x="0.75" y="94.75" width="14.5" height="14.5" rx="7.25" stroke="#E62E05" stroke-width="1.5"/>
<path fill-rule="evenodd" clip-rule="evenodd" d="M11.3977 98.9271L6.62434 103.534L5.35767 102.18C5.12434 101.96 4.75767 101.947 4.491 102.134C4.231 102.327 4.15767 102.667 4.31767 102.94L5.81767 105.38C5.96434 105.607 6.21767 105.747 6.50434 105.747C6.77767 105.747 7.03767 105.607 7.18434 105.38C7.42434 105.067 12.0043 99.6071 12.0043 99.6071C12.6043 98.9938 11.8777 98.4538 11.3977 98.9204V98.9271Z" fill="#E62E05"/>
</g>
<rect x="16" y="101" width="50" height="2" fill="#E62E05"/>
<g clip-path="url(#clip1_2_101272)">
<rect x="66" y="94" width="16" height="16" rx="8" fill="white"/>
<rect x="66.75" y="94.75" width="14.5" height="14.5" rx="7.25" stroke="#667085" stroke-width="1.5"/>
<circle cx="74" cy="102" r="4" fill="#667085"/>
</g>
<rect x="82" y="101" width="50" height="2" fill="#E62E05"/>
<g clip-path="url(#clip2_2_101272)">
<rect x="132" y="94" width="16" height="16" rx="8" fill="#F9F5FF"/>
<rect x="132.75" y="94.75" width="14.5" height="14.5" rx="7.25" stroke="#E62E05" stroke-width="1.5"/>
<path fill-rule="evenodd" clip-rule="evenodd" d="M143.398 98.9271L138.624 103.534L137.358 102.18C137.124 101.96 136.758 101.947 136.491 102.134C136.231 102.327 136.158 102.667 136.318 102.94L137.818 105.38C137.964 105.607 138.218 105.747 138.504 105.747C138.778 105.747 139.038 105.607 139.184 105.38C139.424 105.067 144.004 99.6071 144.004 99.6071C144.604 98.9938 143.878 98.4538 143.398 98.9204V98.9271Z" fill="#E62E05"/>
</g>
<defs>
<clipPath id="clip0_2_101272">
<rect y="94" width="16" height="16" rx="8" fill="white"/>
</clipPath>
<clipPath id="clip1_2_101272">
<rect x="66" y="94" width="16" height="16" rx="8" fill="white"/>
</clipPath>
<clipPath id="clip2_2_101272">
<rect x="132" y="94" width="16" height="16" rx="8" fill="white"/>
</clipPath>
</defs>
</svg>

