<svg width="148" height="120" viewBox="0 0 148 120" fill="none" xmlns="http://www.w3.org/2000/svg">
<g style="mix-blend-mode:multiply">
<rect x="53" y="52" width="95" height="28" rx="14" fill="#344054"/>
<path d="M67.1642 71H65.5336L69.1976 60.8182H70.9725L74.6365 71H73.0059L70.1273 62.6676H70.0478L67.1642 71ZM67.4377 67.0128H72.7275V68.3054H67.4377V67.0128ZM79.5808 63.3636V64.5568H75.2654V63.3636H79.5808ZM76.4487 71V62.4787C76.4487 62.0014 76.5531 61.6053 76.7619 61.2905C76.9707 60.9723 77.2475 60.7353 77.5922 60.5795C77.9368 60.4205 78.3114 60.3409 78.7157 60.3409C79.014 60.3409 79.2692 60.3658 79.4814 60.4155C79.6935 60.4619 79.8509 60.505 79.9537 60.5447L79.6056 61.7479C79.536 61.728 79.4466 61.7048 79.3372 61.6783C79.2278 61.6484 79.0952 61.6335 78.9395 61.6335C78.5782 61.6335 78.3197 61.723 78.1639 61.902C78.0114 62.081 77.9352 62.3395 77.9352 62.6776V71H76.4487ZM84.6792 63.3636V64.5568H80.508V63.3636H84.6792ZM81.6266 61.5341H83.1131V68.7578C83.1131 69.0462 83.1562 69.2633 83.2424 69.4091C83.3285 69.5516 83.4396 69.6494 83.5755 69.7024C83.7147 69.7521 83.8655 69.777 84.0279 69.777C84.1472 69.777 84.2516 69.7687 84.3411 69.7521C84.4306 69.7356 84.5002 69.7223 84.5499 69.7124L84.8184 70.9403C84.7322 70.9735 84.6096 71.0066 84.4505 71.0398C84.2914 71.0762 84.0925 71.0961 83.8539 71.0994C83.4628 71.1061 83.0982 71.0365 82.7601 70.8906C82.4221 70.7448 82.1486 70.5194 81.9398 70.2145C81.731 69.9096 81.6266 69.5268 81.6266 69.0661V61.5341ZM89.5327 71.1541C88.7803 71.1541 88.1323 70.9934 87.5888 70.6719C87.0485 70.3471 86.6309 69.8913 86.3359 69.3047C86.0443 68.7147 85.8984 68.0237 85.8984 67.2315C85.8984 66.4493 86.0443 65.7599 86.3359 65.1634C86.6309 64.5668 87.0419 64.1011 87.5689 63.7663C88.0992 63.4316 88.719 63.2642 89.4283 63.2642C89.8591 63.2642 90.2768 63.3355 90.6811 63.478C91.0855 63.6205 91.4484 63.8442 91.7699 64.1491C92.0914 64.4541 92.3449 64.8501 92.5305 65.3374C92.7161 65.8213 92.8089 66.4096 92.8089 67.1023V67.6293H86.7386V66.5156H91.3523C91.3523 66.1245 91.2727 65.7782 91.1136 65.4766C90.9545 65.1716 90.7308 64.9313 90.4425 64.7557C90.1574 64.58 89.8227 64.4922 89.4382 64.4922C89.0206 64.4922 88.656 64.5949 88.3445 64.8004C88.0362 65.0026 87.7976 65.2678 87.6286 65.5959C87.4628 65.9207 87.38 66.2737 87.38 66.6548V67.5249C87.38 68.0353 87.4695 68.4695 87.6484 68.8274C87.8307 69.1854 88.0843 69.4588 88.4091 69.6477C88.7339 69.8333 89.1134 69.9261 89.5476 69.9261C89.8293 69.9261 90.0862 69.8864 90.3182 69.8068C90.5502 69.724 90.7507 69.6013 90.9197 69.4389C91.0888 69.2765 91.218 69.076 91.3075 68.8374L92.7145 69.0909C92.6018 69.5052 92.3996 69.8681 92.108 70.1797C91.8196 70.4879 91.4567 70.7282 91.0192 70.9006C90.585 71.0696 90.0895 71.1541 89.5327 71.1541ZM94.4583 71V63.3636H95.8951V64.5767H95.9746C96.1138 64.1657 96.3591 63.8426 96.7104 63.6072C97.065 63.3686 97.4661 63.2493 97.9135 63.2493C98.0063 63.2493 98.1157 63.2526 98.2417 63.2592C98.3709 63.2659 98.472 63.2741 98.5449 63.2841V64.706C98.4853 64.6894 98.3792 64.6712 98.2267 64.6513C98.0743 64.6281 97.9218 64.6165 97.7694 64.6165C97.418 64.6165 97.1048 64.6911 96.8297 64.8402C96.5579 64.986 96.3425 65.1899 96.1834 65.4517C96.0243 65.7102 95.9448 66.0052 95.9448 66.3366V71H94.4583ZM103.656 71V60.8182H109.97V62.1406H105.192V65.2429H109.517V66.5604H105.192V71H103.656ZM114.396 71.1541C113.68 71.1541 113.055 70.9901 112.521 70.6619C111.988 70.3338 111.573 69.8748 111.278 69.2848C110.983 68.6948 110.836 68.0054 110.836 67.2166C110.836 66.4245 110.983 65.7318 111.278 65.1385C111.573 64.5452 111.988 64.0845 112.521 63.7564C113.055 63.4283 113.68 63.2642 114.396 63.2642C115.112 63.2642 115.736 63.4283 116.27 63.7564C116.804 64.0845 117.218 64.5452 117.513 65.1385C117.808 65.7318 117.955 66.4245 117.955 67.2166C117.955 68.0054 117.808 68.6948 117.513 69.2848C117.218 69.8748 116.804 70.3338 116.27 70.6619C115.736 70.9901 115.112 71.1541 114.396 71.1541ZM114.401 69.9062C114.865 69.9062 115.249 69.7836 115.554 69.5384C115.859 69.2931 116.084 68.9666 116.23 68.5589C116.379 68.1513 116.454 67.7022 116.454 67.2116C116.454 66.7244 116.379 66.277 116.23 65.8693C116.084 65.4583 115.859 65.1286 115.554 64.88C115.249 64.6314 114.865 64.5071 114.401 64.5071C113.933 64.5071 113.545 64.6314 113.237 64.88C112.932 65.1286 112.705 65.4583 112.556 65.8693C112.41 66.277 112.337 66.7244 112.337 67.2116C112.337 67.7022 112.41 68.1513 112.556 68.5589C112.705 68.9666 112.932 69.2931 113.237 69.5384C113.545 69.7836 113.933 69.9062 114.401 69.9062ZM122.831 71.1541C122.115 71.1541 121.49 70.9901 120.957 70.6619C120.423 70.3338 120.009 69.8748 119.714 69.2848C119.419 68.6948 119.271 68.0054 119.271 67.2166C119.271 66.4245 119.419 65.7318 119.714 65.1385C120.009 64.5452 120.423 64.0845 120.957 63.7564C121.49 63.4283 122.115 63.2642 122.831 63.2642C123.547 63.2642 124.172 63.4283 124.705 63.7564C125.239 64.0845 125.653 64.5452 125.948 65.1385C126.243 65.7318 126.391 66.4245 126.391 67.2166C126.391 68.0054 126.243 68.6948 125.948 69.2848C125.653 69.8748 125.239 70.3338 124.705 70.6619C124.172 70.9901 123.547 71.1541 122.831 71.1541ZM122.836 69.9062C123.3 69.9062 123.685 69.7836 123.99 69.5384C124.294 69.2931 124.52 68.9666 124.666 68.5589C124.815 68.1513 124.889 67.7022 124.889 67.2116C124.889 66.7244 124.815 66.277 124.666 65.8693C124.52 65.4583 124.294 65.1286 123.99 64.88C123.685 64.6314 123.3 64.5071 122.836 64.5071C122.369 64.5071 121.981 64.6314 121.673 64.88C121.368 65.1286 121.141 65.4583 120.992 65.8693C120.846 66.277 120.773 66.7244 120.773 67.2116C120.773 67.7022 120.846 68.1513 120.992 68.5589C121.141 68.9666 121.368 69.2931 121.673 69.5384C121.981 69.7836 122.369 69.9062 122.836 69.9062ZM130.909 71.1491C130.292 71.1491 129.742 70.9917 129.258 70.6768C128.778 70.3587 128.4 69.9062 128.125 69.3196C127.853 68.7296 127.717 68.022 127.717 67.1967C127.717 66.3714 127.855 65.6655 128.13 65.0788C128.408 64.4922 128.789 64.0431 129.273 63.7315C129.757 63.42 130.306 63.2642 130.919 63.2642C131.393 63.2642 131.774 63.3438 132.062 63.5028C132.354 63.6586 132.579 63.8409 132.738 64.0497C132.901 64.2585 133.027 64.4425 133.116 64.6016H133.206V60.8182H134.692V71H133.24V69.8118H133.116C133.027 69.9742 132.897 70.1598 132.728 70.3686C132.563 70.5774 132.334 70.7597 132.042 70.9155C131.751 71.0713 131.373 71.1491 130.909 71.1491ZM131.237 69.8814C131.664 69.8814 132.026 69.7687 132.321 69.5433C132.619 69.3146 132.844 68.9981 132.997 68.5938C133.153 68.1894 133.23 67.7187 133.23 67.1818C133.23 66.6515 133.154 66.1875 133.002 65.7898C132.849 65.392 132.626 65.0821 132.331 64.8601C132.036 64.638 131.671 64.527 131.237 64.527C130.789 64.527 130.417 64.643 130.118 64.875C129.82 65.107 129.595 65.4235 129.442 65.8246C129.293 66.2256 129.218 66.678 129.218 67.1818C129.218 67.6922 129.295 68.1513 129.447 68.5589C129.6 68.9666 129.825 69.2898 130.123 69.5284C130.425 69.7637 130.796 69.8814 131.237 69.8814Z" fill="white"/>
</g>
<g clip-path="url(#clip0_2_101255)">
<rect y="94" width="16" height="16" rx="8" fill="#F9F5FF"/>
<rect x="0.75" y="94.75" width="14.5" height="14.5" rx="7.25" stroke="#E62E05" stroke-width="1.5"/>
<path fill-rule="evenodd" clip-rule="evenodd" d="M11.3977 98.9271L6.62434 103.534L5.35767 102.18C5.12434 101.96 4.75767 101.947 4.491 102.134C4.231 102.327 4.15767 102.667 4.31767 102.94L5.81767 105.38C5.96434 105.607 6.21767 105.747 6.50434 105.747C6.77767 105.747 7.03767 105.607 7.18434 105.38C7.42434 105.067 12.0043 99.6071 12.0043 99.6071C12.6043 98.9938 11.8777 98.4538 11.3977 98.9204V98.9271Z" fill="#E62E05"/>
</g>
<rect x="16" y="101" width="50" height="2" fill="#E62E05"/>
<g clip-path="url(#clip1_2_101255)">
<rect x="66" y="94" width="16" height="16" rx="8" fill="white"/>
<rect x="66.75" y="94.75" width="14.5" height="14.5" rx="7.25" stroke="#667085" stroke-width="1.5"/>
<circle cx="74" cy="102" r="4" fill="#667085"/>
</g>
<rect x="82" y="101" width="50" height="2" fill="#E62E05"/>
<g clip-path="url(#clip2_2_101255)">
<rect x="132" y="94" width="16" height="16" rx="8" fill="#F9F5FF"/>
<rect x="132.75" y="94.75" width="14.5" height="14.5" rx="7.25" stroke="#E62E05" stroke-width="1.5"/>
<path fill-rule="evenodd" clip-rule="evenodd" d="M143.398 98.9271L138.624 103.534L137.358 102.18C137.124 101.96 136.758 101.947 136.491 102.134C136.231 102.327 136.158 102.667 136.318 102.94L137.818 105.38C137.964 105.607 138.218 105.747 138.504 105.747C138.778 105.747 139.038 105.607 139.184 105.38C139.424 105.067 144.004 99.6071 144.004 99.6071C144.604 98.9938 143.878 98.4538 143.398 98.9204V98.9271Z" fill="#E62E05"/>
</g>
<defs>
<clipPath id="clip0_2_101255">
<rect y="94" width="16" height="16" rx="8" fill="white"/>
</clipPath>
<clipPath id="clip1_2_101255">
<rect x="66" y="94" width="16" height="16" rx="8" fill="white"/>
</clipPath>
<clipPath id="clip2_2_101255">
<rect x="132" y="94" width="16" height="16" rx="8" fill="white"/>
</clipPath>
</defs>
</svg>
