<svg width="32" height="30" viewBox="0 0 32 30" fill="none" xmlns="http://www.w3.org/2000/svg">
            <g filter="url(#filter0_d_2_101389)">
            <path d="M2 10.4611C2 7.41194 2 5.88735 2.67818 4.72272C3.27473 3.69828 4.22661 2.86539 5.39739 2.34341C6.7284 1.75 8.47078 1.75 11.9556 1.75H20.0444C23.5292 1.75 25.2716 1.75 26.6026 2.34341C27.7734 2.86539 28.7253 3.69828 29.3218 4.72272C30 5.88735 30 7.41194 30 10.4611V17.5389C30 20.5881 30 22.1127 29.3218 23.2773C28.7253 24.3017 27.7734 25.1346 26.6026 25.6566C25.2716 26.25 23.5292 26.25 20.0444 26.25H11.9556C8.47078 26.25 6.7284 26.25 5.39739 25.6566C4.22661 25.1346 3.27473 24.3017 2.67818 23.2773C2 22.1127 2 20.5881 2 17.5389V10.4611Z" fill="white"/>
            <path fill-rule="evenodd" clip-rule="evenodd" d="M24 12.8116L23.9999 12.8541C23.9998 12.872 23.9996 12.8899 23.9994 12.9078C23.9998 12.9287 24 12.9498 24 12.971C24 16.3073 21.4007 19.2604 19.6614 21.2367C19.1567 21.8101 18.7244 22.3013 18.449 22.6957C17.4694 24.0986 16.9524 25.6184 16.8163 26.2029C16.8163 26.6431 16.4509 27 16 27C15.5491 27 15.1837 26.6431 15.1837 26.2029C15.0476 25.6184 14.5306 24.0986 13.551 22.6957C13.2756 22.3013 12.8433 21.8101 12.3386 21.2367C10.5993 19.2604 8 16.3073 8 12.971C8 12.9498 8.0002 12.9287 8.0006 12.9078C8.0002 12.8758 8 12.8437 8 12.8116C8 8.49736 11.5817 5 16 5C20.4183 5 24 8.49736 24 12.8116ZM16 15.6812C17.7132 15.6812 19.102 14.325 19.102 12.6522C19.102 10.9793 17.7132 9.62319 16 9.62319C14.2868 9.62319 12.898 10.9793 12.898 12.6522C12.898 14.325 14.2868 15.6812 16 15.6812Z" fill="#34A851"/>
            <path d="M23.1054 9.21954C22.1258 7.37644 20.4161 5.96275 18.3504 5.34375L13.7559 10.5624C14.3208 9.98449 15.1174 9.62443 16.0002 9.62443C17.7134 9.62443 19.1022 10.9806 19.1022 12.6534C19.1022 13.3359 18.8711 13.9656 18.4811 14.472L23.1054 9.21954Z" fill="#4285F5"/>
            <path d="M12.4316 21.3415C12.4009 21.3066 12.37 21.2715 12.3388 21.2361C11.1923 19.9334 9.6721 18.2063 8.76904 16.2248L13.5444 10.8008C13.1392 11.3126 12.8981 11.9546 12.8981 12.6516C12.8981 14.3245 14.2869 15.6806 16.0001 15.6806C16.868 15.6806 17.6526 15.3326 18.2156 14.7717L12.4316 21.3415Z" fill="#F9BB0E"/>
            <path d="M9.89288 7.76562C8.71207 9.12685 8 10.8881 8 12.8117C8 12.8438 8.0002 12.8759 8.0006 12.9079C8.0002 12.9288 8 12.9499 8 12.9711C8 14.1082 8.30196 15.2009 8.76889 16.2254L13.5362 10.8106L9.89288 7.76562Z" fill="#E74335"/>
            <path d="M18.3504 5.34254C17.6073 5.11988 16.8181 5 16.0002 5C13.5519 5 11.3605 6.07387 9.89307 7.76553L13.5364 10.8105L13.5443 10.8015C13.6106 10.7178 13.6812 10.6375 13.7559 10.5611L18.3504 5.34254Z" fill="#1A73E6"/>
            </g>
            <defs>
            <filter id="filter0_d_2_101389" x="-2" y="-1" width="36" height="32" filterUnits="userSpaceOnUse" color-interpolation-filters="sRGB">
            <feFlood flood-opacity="0" result="BackgroundImageFix"/>
            <feColorMatrix in="SourceAlpha" type="matrix" values="0 0 0 0 0 0 0 0 0 0 0 0 0 0 0 0 0 0 127 0" result="hardAlpha"/>
            <feOffset dy="1"/>
            <feGaussianBlur stdDeviation="1"/>
            <feColorMatrix type="matrix" values="0 0 0 0 0.0627451 0 0 0 0 0.0941176 0 0 0 0 0.156863 0 0 0 0.05 0"/>
            <feBlend mode="normal" in2="BackgroundImageFix" result="effect1_dropShadow_2_101389"/>
            <feBlend mode="normal" in="SourceGraphic" in2="effect1_dropShadow_2_101389" result="shape"/>
            </filter>
            </defs>
            </svg>